<svg width="120" height="78" viewBox="0 0 120 78" fill="none" xmlns="http://www.w3.org/2000/svg">
<path fill-rule="evenodd" clip-rule="evenodd" d="M59.6496 5.58162C59.6496 10.7777 59.6763 11.1581 60.0364 11.0884C60.3905 11.0199 60.4283 10.5468 60.4823 5.50682C60.5402 0.112865 60.5325 0 60.0954 0C59.6602 0 59.6496 0.132233 59.6496 5.58162ZM49.9757 3.37529C49.8533 3.49862 49.8042 3.79603 49.8668 4.03668C50.0149 4.60679 50.6763 4.48124 50.7638 3.86615C50.8379 3.34523 50.3237 3.02489 49.9757 3.37529ZM69.402 3.32297C69.0181 3.56206 69.1746 4.31717 69.6262 4.40488C70.0628 4.48947 70.3205 3.66691 69.9536 3.36015C69.8101 3.24016 69.5619 3.22346 69.402 3.32297ZM50.4358 6.14684C50.3248 6.43802 52.1348 17.7204 52.4942 18.9779C52.6112 19.3869 53.1278 19.5062 53.3331 19.1716C53.3992 19.0638 52.958 16.1336 52.3525 12.6601C51.7471 9.18642 51.251 6.28019 51.2506 6.20138C51.2481 5.86635 50.5602 5.82027 50.4358 6.14684ZM69.0046 5.96964C68.734 6.1415 66.4448 18.8711 66.63 19.1731C66.8345 19.5062 67.3511 19.3864 67.4716 18.9779C67.6661 18.3196 69.597 6.97452 69.597 6.491C69.597 5.96741 69.3501 5.75014 69.0046 5.96964ZM59.6882 13.5043C59.7793 14.3061 60.4232 14.3747 60.4232 13.5826C60.4232 13.2238 60.2813 13.0016 60.0198 12.9508C59.6938 12.8876 59.6301 12.9936 59.6882 13.5043ZM20.8485 14.4798C20.6816 14.7518 20.4444 14.4355 24.4751 19.319C26.2232 21.4369 27.7651 23.1308 27.9015 23.0827C28.0376 23.0348 28.1433 22.7991 28.1362 22.5591C28.1207 22.0473 21.6757 14.2473 21.268 14.2473C21.1157 14.2473 20.927 14.352 20.8485 14.4798ZM95.0526 18.3007C91.9136 22.1021 91.4306 22.8755 92.0635 23.0876C92.3635 23.1882 99.2561 14.9179 99.1469 14.5882C98.9064 13.8604 98.1608 14.5367 95.0526 18.3007ZM34.0625 15.0717C33.9106 15.1285 33.7861 15.2796 33.7861 15.4074C33.7861 15.7631 43.0777 32.0565 43.2807 32.0565C43.3784 32.0565 43.5665 31.9254 43.6985 31.7654C43.8806 31.5443 42.8445 29.5503 39.389 23.473C36.8871 19.0723 34.7272 15.3584 34.5892 15.2202C34.4515 15.0817 34.2146 15.0149 34.0625 15.0717ZM85.2052 15.4232C83.3612 18.3737 76.2147 31.2627 76.2684 31.5412C76.3073 31.7431 76.4535 31.9466 76.5932 31.9935C76.8317 32.0735 86.1761 15.9058 86.1761 15.4127C86.1761 14.933 85.5072 14.9401 85.2052 15.4232ZM59.6496 30.8322C59.6496 45.4876 59.654 45.636 60.0917 45.636C60.5293 45.636 60.5338 45.4876 60.5338 30.8322C60.5338 16.1768 60.5293 16.0283 60.0917 16.0283C59.654 16.0283 59.6496 16.1768 59.6496 30.8322ZM44.2491 17.7152C44.1755 17.9083 44.2617 18.2139 44.4408 18.3942C44.7219 18.6772 44.802 18.6787 45.0275 18.4051C45.3431 18.022 45.1347 17.364 44.6979 17.364C44.5245 17.364 44.3227 17.522 44.2491 17.7152ZM74.8404 17.8009C74.6835 18.4049 75.1979 18.8118 75.5609 18.3713C75.8876 17.9748 75.7092 17.364 75.2666 17.364C75.0946 17.364 74.9028 17.5605 74.8404 17.8009ZM45.1431 19.9156C44.968 20.3753 47.2809 26.9484 47.6721 27.1031C48.4293 27.4023 48.3172 26.6472 47.1038 23.2706C45.8862 19.8831 45.4439 19.126 45.1431 19.9156ZM73.994 20.2023C73.8654 20.5389 73.2714 22.1622 72.6741 23.8095C71.6316 26.6851 71.5507 27.3914 72.2963 27.1031C72.6823 26.954 75 20.3902 74.8269 19.9363C74.6247 19.4051 74.2535 19.5238 73.994 20.2023ZM53.0557 20.7686C52.8601 21.0059 52.9027 21.6506 53.2368 23.5068C53.4768 24.842 53.7268 26.1599 53.792 26.4355C53.9085 26.9279 54.4285 27.1169 54.6544 26.749C54.841 26.4446 53.8813 21.0636 53.584 20.7477C53.3608 20.5104 53.2653 20.5142 53.0557 20.7686ZM66.178 20.9814C65.9317 21.7488 65.1991 26.5715 65.303 26.7409C65.5079 27.0746 66.0245 26.956 66.1479 26.5468C66.4355 25.594 67.1486 21.0783 67.0394 20.9006C66.8595 20.6072 66.2805 20.6618 66.178 20.9814ZM15.3296 23.8171C15.1422 24.123 15.6051 24.7102 16.0337 24.7102C16.4831 24.7102 16.3113 23.7321 15.846 23.6428C15.6446 23.6041 15.4123 23.6827 15.3296 23.8171ZM103.714 23.946C103.641 24.1379 103.694 24.409 103.833 24.5486C104.144 24.8621 104.881 24.2218 104.647 23.8412C104.427 23.4816 103.867 23.5446 103.714 23.946ZM29.1816 24.7481C29.2302 25.0938 29.402 25.2668 29.6966 25.2668C30.3549 25.2668 30.2893 24.3977 29.6237 24.3029C29.1951 24.2416 29.1208 24.3164 29.1816 24.7481ZM89.8399 24.6361C89.7621 24.8403 89.7946 25.1041 89.9119 25.2223C90.2376 25.5502 90.8183 25.2265 90.8183 24.7171C90.8183 24.1588 90.0461 24.0949 89.8399 24.6361ZM17.3158 25.6038C17.1111 25.9371 17.0598 25.8888 22.6123 30.5906C25.1595 32.7475 27.3479 34.4775 27.4755 34.4347C28.2063 34.1896 27.4733 33.3945 23.038 29.6209C20.4006 27.3767 18.0705 25.4954 17.8603 25.44C17.65 25.3845 17.4049 25.4582 17.3158 25.6038ZM97.0989 29.4851C92.6594 33.2667 91.79 34.2008 92.4903 34.4358C92.8186 34.546 102.791 26.0415 102.69 25.7372C102.47 25.0718 101.579 25.6691 97.0989 29.4851ZM31.065 26.7953C30.9964 26.9749 34.6591 31.5995 40.0128 38.093C44.9978 44.1394 49.1426 49.1549 49.2235 49.2386C49.3044 49.3221 49.5538 49.2542 49.7775 49.0879C50.1539 48.8079 49.487 47.9439 40.9397 37.6382C35.8552 31.5073 31.5791 26.4912 31.4379 26.4912C31.2964 26.4912 31.1286 26.6281 31.065 26.7953ZM79.0257 37.6344C70.5126 47.9127 69.8172 48.8145 70.1886 49.0921C70.4994 49.3243 70.6486 49.3326 70.8396 49.1286C72.2864 47.5837 88.8984 27.2075 88.9159 26.9562C88.999 25.7588 87.6965 27.1652 79.0257 37.6344ZM48.2555 28.7329C48.1753 28.864 49.5275 32.9212 51.2608 37.7488C54.258 46.098 54.7629 47.2046 55.1316 46.2367C55.2444 45.9408 49.3762 29.2787 48.981 28.773C48.7146 28.4317 48.4494 28.4172 48.2555 28.7329ZM70.9857 28.773C70.5674 29.3199 64.6903 46.0528 64.8342 46.2872C64.9148 46.4188 65.1114 46.5265 65.2705 46.5265C65.6109 46.5265 71.8874 29.2476 71.713 28.7901C71.5715 28.4186 71.2622 28.4114 70.9857 28.773ZM54.3506 29.3295C54.3542 29.6661 54.9791 33.498 55.7395 37.8445C57.0811 45.5125 57.1377 45.7496 57.6437 45.8226C58.1097 45.8898 58.1519 45.8306 58.0401 45.2661C57.9713 44.9186 57.2931 41.0531 56.5331 36.6758C55.3094 29.6263 55.1055 28.7173 54.7479 28.7173C54.4534 28.7173 54.346 28.8827 54.3506 29.3295ZM63.4296 36.7871C62.6654 41.2256 61.9868 45.0909 61.9213 45.3771C61.8196 45.8228 61.8778 45.8865 62.3281 45.8224C62.8394 45.7494 62.8913 45.5336 64.2225 37.9558C65.752 29.2478 65.8092 28.7173 65.2186 28.7173C64.8662 28.7173 64.6551 29.6688 63.4296 36.7871ZM44.9841 34.8283C44.8 35.3116 45.5365 36.1101 45.9316 35.8557C46.1897 35.6894 46.2013 35.5411 45.9917 35.0779C45.7079 34.4505 45.178 34.3194 44.9841 34.8283ZM73.9779 35.0618C73.7599 35.5434 73.7696 35.6876 74.0307 35.8557C74.3862 36.0845 75.2005 35.2954 75.0571 34.8613C74.8904 34.3573 74.242 34.4779 73.9779 35.0618ZM28.5777 35.1956C28.4021 35.4817 28.6239 35.7103 31.1266 37.8254C32.1565 38.6954 33.1015 39.373 33.2267 39.3309C33.8989 39.1056 33.4289 38.4329 31.4293 36.7579C29.2797 34.9579 28.8635 34.7297 28.5777 35.1956ZM88.5392 36.7642C86.551 38.4458 86.0839 39.1125 86.74 39.3325C87.0672 39.4422 91.5177 35.6166 91.4169 35.3121C91.2208 34.7183 90.5691 35.0471 88.5392 36.7642ZM19.9437 38.1678C19.7724 38.6177 20.0273 38.9576 20.5359 38.9576C21.0171 38.9576 21.1025 38.5173 20.6997 38.1117C20.3465 37.7559 20.0936 37.7746 19.9437 38.1678ZM99.2654 38.109C98.8218 38.5556 98.9467 38.9959 99.4947 38.9175C99.813 38.8719 99.992 38.6927 99.992 38.4195C99.992 37.8988 99.6284 37.7432 99.2654 38.109ZM47.2705 38.9251C47.2705 39.2503 51.5932 47.1483 52.0126 47.5893C52.1238 47.7061 52.7969 47.3678 52.7969 47.1948C52.7969 47.0986 51.7236 45.1316 50.4119 42.8233C48.1576 38.8565 47.2705 37.7557 47.2705 38.9251ZM71.6283 39.2359C70.3353 41.3796 67.1654 47.0249 67.1654 47.1841C67.1654 47.4504 67.8743 47.6868 68.0527 47.48C68.5583 46.894 72.6918 39.2786 72.6918 38.9333C72.6918 38.2737 72.1086 38.4396 71.6283 39.2359ZM21.9597 39.4028C21.8846 39.5253 21.8806 39.7192 21.9509 39.8338C22.217 40.2672 28.3046 43.6628 28.6066 43.5461C29.4048 43.2376 28.9977 42.8985 25.1478 40.6651C22.5298 39.1464 22.1978 39.0148 21.9597 39.4028ZM94.4657 40.8667C92.8851 41.7942 91.4558 42.6862 91.2895 42.8489C90.9639 43.167 91.1198 43.6343 91.5497 43.6298C92.0714 43.6245 98.0025 39.9409 98.0025 39.6223C98.0025 38.9627 97.2724 39.2196 94.4657 40.8667ZM34.9292 40.359C34.8008 40.5146 34.7645 40.7541 34.8488 40.891C34.933 41.0277 37.7309 43.4506 41.0661 46.2754C45.7556 50.2471 47.1962 51.3559 47.4215 51.1678C47.5815 51.0338 47.7126 50.847 47.7126 50.7524C47.7126 50.599 36.0332 40.6049 35.4138 40.2283C35.2756 40.1444 35.0574 40.2031 34.9292 40.359ZM78.8563 44.9809C71.6172 51.0955 72.0651 50.6658 72.4869 51.0906C72.7846 51.3902 73.4893 50.861 79.0011 46.1988C84.7191 41.3618 85.6754 40.385 84.9353 40.1366C84.8001 40.0912 82.0645 42.271 78.8563 44.9809ZM10.4286 43.3135C10.3555 43.5054 10.3835 43.742 10.4907 43.8393C10.5982 43.9366 14.5979 45.445 19.3791 47.1912C25.8479 49.5538 28.1362 50.3018 28.3223 50.1144C28.5085 49.9269 28.4899 49.7851 28.2503 49.5601C27.9722 49.299 11.1311 42.9647 10.7151 42.9647C10.6307 42.9647 10.5018 43.1216 10.4286 43.3135ZM100.38 46.1665C95.7305 47.9058 91.8064 49.4494 91.6596 49.5973C91.4602 49.798 91.4565 49.9296 91.6448 50.1193C91.8334 50.3092 94.1129 49.5592 100.697 47.1416C107.979 44.4678 109.497 43.8386 109.497 43.496C109.497 43.2683 109.348 43.0646 109.166 43.0432C108.983 43.0219 105.03 44.4275 100.38 46.1665ZM30.1113 44.1808C30.0333 44.3854 30.0574 44.6349 30.1646 44.7353C30.272 44.8355 33.7369 46.8914 37.8642 49.3038C44.7387 53.3218 45.3924 53.6571 45.6526 53.2987C45.8909 52.9708 45.8747 52.8659 45.5536 52.6491C44.8318 52.162 30.9361 44.0728 30.5943 43.9408C30.3901 43.862 30.196 43.9584 30.1113 44.1808ZM81.755 48.333C77.5605 50.7914 74.1048 52.8254 74.0756 52.8532C74.0466 52.8808 74.1523 53.0821 74.3108 53.3004C74.5765 53.6664 75.1983 53.3459 82.2774 49.1932C87.6839 46.0218 89.936 44.5877 89.8896 44.3462C89.8533 44.1577 89.724 43.9718 89.6025 43.9333C89.4809 43.8948 85.9495 45.8745 81.755 48.333ZM0.0545243 51.0126C-0.251637 51.5115 0.618875 51.7675 5.57293 52.6344C9.43741 53.3107 10.6411 53.4505 10.8435 53.2466C11.0199 53.0689 11.033 52.9089 10.8829 52.7577C10.6866 52.56 1.35808 50.7562 0.531781 50.7562C0.355821 50.7562 0.141178 50.8715 0.0545243 51.0126ZM31.3545 51.1865C31.3545 51.6324 32.0672 52.0024 32.4578 51.7593C32.7976 51.5478 32.724 51.0431 32.3312 50.8913C31.6974 50.6464 31.3545 50.75 31.3545 51.1865ZM87.5577 50.9036C87.2259 51.0385 87.193 51.5654 87.5044 51.7593C87.895 52.0024 88.6077 51.6324 88.6077 51.1865C88.6077 50.7664 88.1793 50.6511 87.5577 50.9036ZM114.047 51.6584C111.283 52.1618 109.24 52.6388 109.138 52.8051C108.701 53.5171 109.509 53.4957 114.195 52.6725C120.302 51.5994 119.997 51.6778 119.997 51.1774C119.997 50.6066 119.687 50.6317 114.047 51.6584ZM35.6308 52.658C35.5588 52.847 35.5387 53.0404 35.586 53.0881C35.7493 53.2526 43.5523 56.0989 43.8399 56.0989C44.0869 56.0989 44.5203 55.44 44.3468 55.3285C44.1532 55.2045 36.0769 52.3065 35.9346 52.31C35.8395 52.3125 35.7029 52.469 35.6308 52.658ZM79.655 53.8189C77.4666 54.6263 75.6488 55.3051 75.6155 55.3271C75.4415 55.4429 75.8763 56.0989 76.1272 56.0989C76.2886 56.0989 78.2177 55.4338 80.4141 54.6208C83.6342 53.4289 84.4077 53.0625 84.4077 52.7285C84.4077 52.4757 84.2571 52.3216 84.0208 52.3327C83.8082 52.3428 81.8434 53.0115 79.655 53.8189ZM12.6546 53.2388C12.5682 53.3797 12.6821 53.6313 12.908 53.7973C13.255 54.0531 13.3669 54.0511 13.631 53.7851C13.8028 53.6119 13.8762 53.3606 13.7937 53.2263C13.5968 52.9051 12.8545 52.9133 12.6546 53.2388ZM106.169 53.2263C106.086 53.3606 106.159 53.6119 106.331 53.7851C106.595 54.0511 106.707 54.0531 107.054 53.7973C107.28 53.6313 107.394 53.3797 107.308 53.2388C107.108 52.9133 106.366 52.9051 106.169 53.2263ZM15.6822 53.7341C15.4956 53.9605 15.5047 54.0961 15.7187 54.2748C15.8756 54.4062 19.1844 55.0758 23.0714 55.7632C26.9584 56.4504 32.9528 57.5121 36.3919 58.1221C39.8313 58.732 42.7411 59.1717 42.8578 59.0989C43.278 58.8373 43.0585 58.358 42.4625 58.2356C41.5843 58.0555 30.7542 56.1034 23.286 54.7793C19.7602 54.154 16.663 53.5952 16.4033 53.5373C16.1438 53.4792 15.8193 53.5678 15.6822 53.7341ZM100.213 54.1194C98.2678 54.479 92.4983 55.5255 87.3919 56.4449C82.2856 57.3645 77.8342 58.1717 77.4997 58.2387C76.9075 58.3574 76.6831 58.8367 77.0987 59.0956C77.2915 59.2153 82.0738 58.4101 97.6668 55.6314C101.13 55.0146 104.09 54.4033 104.246 54.2731C104.459 54.095 104.467 53.9609 104.278 53.7319C104.14 53.5645 103.965 53.4362 103.889 53.4467C103.812 53.4572 102.158 53.7599 100.213 54.1194ZM1.73321 62.5548C1.73321 62.8813 1.88066 63 2.28585 63C2.69104 63 2.83849 62.8813 2.83849 62.5548C2.83849 62.2282 2.69104 62.1095 2.28585 62.1095C1.88066 62.1095 1.73321 62.2282 1.73321 62.5548ZM4.53641 62.2547C4.45374 62.3382 4.38587 62.5399 4.38587 62.7033C4.38587 62.9441 5.65959 63 11.1442 63C17.4617 63 17.8978 62.9746 17.8282 62.6104C17.7597 62.2516 17.24 62.2162 11.2204 62.1618C7.62698 62.1296 4.61931 62.1712 4.53641 62.2547ZM19.1965 62.5485C19.1965 62.9806 19.3294 63 22.3074 63C25.1513 63 25.4121 62.9666 25.3443 62.6104C25.2786 62.2656 24.9212 62.2137 22.2334 62.159C19.3097 62.0993 19.1965 62.1138 19.1965 62.5485ZM27.3019 62.258C27.2208 62.3395 27.1545 62.5399 27.1545 62.7033C27.1545 62.9448 28.573 63 34.7809 63C42.2598 63 42.4073 62.9913 42.4073 62.5548C42.4073 62.1182 42.2598 62.1095 34.9283 62.1095C30.8147 62.1095 27.3829 62.1763 27.3019 62.258ZM77.555 62.5519C77.555 62.9924 77.6859 63 85.1975 63C92.3573 63 92.8354 62.9753 92.7658 62.6104C92.6968 62.2498 92.1285 62.2164 85.1232 62.1623C77.6666 62.1046 77.555 62.1102 77.555 62.5519ZM94.7236 62.258C94.6425 62.3395 94.5762 62.5399 94.5762 62.7033C94.5762 62.9363 95.2394 63 97.671 63C100.618 63 100.766 62.9789 100.766 62.5548C100.766 62.1318 100.618 62.1095 97.8184 62.1095C96.1972 62.1095 94.8046 62.1763 94.7236 62.258ZM102.243 62.2547C102.16 62.3382 102.092 62.5399 102.092 62.7033C102.092 62.9441 103.366 63 108.85 63C115.168 63 115.604 62.9746 115.534 62.6104C115.466 62.2516 114.946 62.2162 108.927 62.1618C105.333 62.1296 102.326 62.1712 102.243 62.2547ZM117.124 62.5548C117.124 62.8813 117.271 63 117.676 63C118.082 63 118.229 62.8813 118.229 62.5548C118.229 62.2282 118.082 62.1095 117.676 62.1095C117.271 62.1095 117.124 62.2282 117.124 62.5548Z" fill="#7B9E89"/>
<path fill-rule="evenodd" clip-rule="evenodd" d="M58.816 50.415C57.8206 50.7441 56.0778 51.7777 54.9428 52.7117C48.5949 57.9333 47.0784 65.3719 51.6295 68.9602C53.1211 70.1365 56.9944 71.5552 58.7271 71.5596C60.3381 71.564 60.5077 71.8104 61.1602 75.1005L61.7086 77.8672L62.0597 74.8766C62.4054 71.9269 62.4335 71.8741 64.0878 71.043C66.4578 69.852 67.9205 69.9471 69.6509 71.4045C71.3827 72.863 71.4186 72.7298 69.9232 70.3921C67.4191 66.4777 63.4072 64.2252 57.2566 63.2803C55.6091 63.0274 53.8036 62.6386 53.2442 62.4168C51.8986 61.8828 51.4566 60.0335 52.2032 58.0614C52.8552 56.3389 55.5746 53.0767 57.3764 51.8557C58.9086 50.8171 60.6611 50.9602 60.8473 52.1392C60.921 52.6078 61.1653 53.2978 61.3892 53.6727C61.6137 54.0475 61.8998 54.5842 62.0252 54.8654C62.1689 55.1884 62.2662 55.1015 62.2892 54.6299C62.309 54.2193 62.533 53.7886 62.7865 53.6727C63.4464 53.3711 63.3565 50.922 62.6712 50.5301C61.4971 49.8581 60.58 49.8309 58.816 50.415ZM62.7865 52.6504C62.7865 52.9315 62.5855 53.1615 62.3399 53.1615C62.0948 53.1615 62.0132 52.9315 62.1588 52.6504C62.3049 52.3693 62.5058 52.1392 62.6053 52.1392C62.7049 52.1392 62.7865 52.3693 62.7865 52.6504Z" fill="#7B9E89"/>
</svg>
